<svg width="22" height="28" viewBox="0 0 22 28" fill="none" xmlns="http://www.w3.org/2000/svg">
<path d="M15.8875 0.885453C15.8317 0.823098 13.8215 0.910068 12.0723 2.80864C10.323 4.70557 10.5922 6.88146 10.6315 6.93725C10.6709 6.99304 13.1258 7.08001 14.6929 4.87294C16.26 2.66588 15.9433 0.94945 15.8875 0.885453ZM21.3256 20.1386C21.2468 19.9811 17.5104 18.1137 17.8583 14.5233C18.2061 10.9313 20.6068 9.94674 20.6446 9.84008C20.6823 9.73341 19.6649 8.54373 18.5868 7.94151C17.7953 7.51692 16.9192 7.27365 16.022 7.22934C15.8448 7.22441 15.2295 7.07345 13.9643 7.41969C13.1307 7.64778 11.2518 8.3862 10.7349 8.41574C10.2164 8.44527 8.6739 7.55917 7.01491 7.32451C5.95322 7.11939 4.82753 7.53947 4.02183 7.86274C3.21777 8.18437 1.68841 9.10001 0.618514 11.5335C-0.451381 13.9654 0.10818 17.8183 0.50857 19.0162C0.90896 20.2125 1.53416 22.1734 2.59749 23.6043C3.54267 25.219 4.79635 26.3397 5.31981 26.7204C5.84327 27.1011 7.32012 27.3539 8.34407 26.8304C9.16782 26.325 10.6545 26.0345 11.242 26.0559C11.8278 26.0772 12.983 26.3086 14.1661 26.9403C15.1031 27.2636 15.9892 27.129 16.877 26.768C17.7647 26.4054 19.0496 25.0303 20.5494 22.2423C21.1188 20.946 21.3781 20.2453 21.3256 20.1386Z" fill="black"/>
</svg>
