<svg width="28" height="28" viewBox="0 0 16 16" fill="none" xmlns="http://www.w3.org/2000/svg">
<g clip-path="url(#clip0_2083_761)">
<path d="M13.8931 3.07309C13.5526 2.73242 13.1483 2.46218 12.7033 2.27781C12.2584 2.09343 11.7814 1.99854 11.2998 1.99854C10.8181 1.99854 10.3412 2.09343 9.89618 2.27781C9.45121 2.46218 9.04692 2.73242 8.70642 3.07309L7.99975 3.77975L7.29309 3.07309C6.60529 2.38529 5.67244 1.99889 4.69975 1.99889C3.72706 1.99889 2.79422 2.38529 2.10642 3.07309C1.41863 3.76088 1.03223 4.69373 1.03223 5.66642C1.03223 6.63911 1.41863 7.57196 2.10642 8.25975L2.81309 8.96642L7.99975 14.1531L13.1864 8.96642L13.8931 8.25975C14.2337 7.91925 14.504 7.51496 14.6884 7.06999C14.8727 6.62502 14.9676 6.14808 14.9676 5.66642C14.9676 5.18476 14.8727 4.70782 14.6884 4.26285C14.504 3.81788 14.2337 3.41359 13.8931 3.07309Z" fill="#FD525C" stroke="white" stroke-width="0.001" stroke-linecap="round" stroke-linejoin="round"/>
</g>
<defs>
<clipPath id="clip0_2083_761">
<rect width="16" height="16" fill="white"/>
</clipPath>
</defs>
</svg>
