<svg width="28" height="28" viewBox="0 0 28 28" fill="none" xmlns="http://www.w3.org/2000/svg">
<path d="M26.8923 11.3408H25.7986V11.2844H13.5782V16.7157H21.2519C20.1324 19.8774 17.1241 22.147 13.5782 22.147C9.07906 22.147 5.43128 18.4992 5.43128 14.0001C5.43128 9.50093 9.07906 5.85315 13.5782 5.85315C15.655 5.85315 17.5444 6.63661 18.983 7.91636L22.8236 4.07577C20.3985 1.81568 17.1547 0.421875 13.5782 0.421875C6.07963 0.421875 0 6.50151 0 14.0001C0 21.4986 6.07963 27.5783 13.5782 27.5783C21.0767 27.5783 27.1564 21.4986 27.1564 14.0001C27.1564 13.0896 27.0627 12.201 26.8923 11.3408Z" fill="#FFC107"/>
<path d="M1.56592 7.68034L6.02703 10.952C7.23413 7.96344 10.1575 5.85339 13.5785 5.85339C15.6553 5.85339 17.5447 6.63685 18.9833 7.9166L22.8239 4.07601C20.3989 1.81592 17.155 0.422119 13.5785 0.422119C8.36316 0.422119 3.84026 3.36655 1.56592 7.68034Z" fill="#FF3D00"/>
<path d="M13.5787 27.5783C17.0859 27.5783 20.2728 26.2361 22.6822 24.0534L18.4797 20.4973C17.0707 21.5689 15.3489 22.1485 13.5787 22.1471C10.047 22.1471 7.04827 19.8951 5.91857 16.7524L1.49072 20.164C3.73791 24.5613 8.30154 27.5783 13.5787 27.5783Z" fill="#4CAF50"/>
<path d="M26.8922 11.3418H25.7985V11.2854H13.5781V16.7167H21.2518C20.7163 18.2214 19.7517 19.5363 18.4771 20.4989L18.4792 20.4975L22.6816 24.0537C22.3843 24.3239 27.1563 20.7901 27.1563 14.001C27.1563 13.0906 27.0626 12.2019 26.8922 11.3418Z" fill="#1976D2"/>
</svg>
